<?xml version="1.0" encoding="iso-8859-1"?>
<!-- Generator: Adobe Illustrator 16.0.0, SVG Export Plug-In . SVG Version: 6.00 Build 0)  -->
<!DOCTYPE svg PUBLIC "-//W3C//DTD SVG 1.1//EN" "http://www.w3.org/Graphics/SVG/1.1/DTD/svg11.dtd">
<svg version="1.1" id="Capa_1" xmlns="http://www.w3.org/2000/svg" xmlns:xlink="http://www.w3.org/1999/xlink" x="0px" y="0px"
	 width="316.797px" height="316.797px" viewBox="0 0 316.797 316.797" style="enable-background:new 0 0 316.797 316.797;"
	 xml:space="preserve">
<g>
	<path d="M35.1,315.9h201.598c19.354,0,35.1-15.746,35.1-35.1V79.197c0-19.354-15.746-35.101-35.1-35.101H35.1
		C15.747,44.097,0,59.844,0,79.197v201.598C0,300.148,15.747,315.9,35.1,315.9z M16.2,79.197c0-10.423,8.477-18.9,18.9-18.9h201.598
		c10.426,0,18.9,8.478,18.9,18.9v201.598c0,10.426-8.475,18.9-18.9,18.9H35.1c-10.423,0-18.9-8.475-18.9-18.9V79.197z"/>
	<path d="M278.996,286.2c0,2.152,0.854,4.098,2.226,5.548c1.477,1.562,3.555,2.553,5.875,2.553c4.472,0,8.1-3.623,8.1-8.101V57.597
		c0-19.354-15.746-35.1-35.1-35.1H36.898c-4.472,0-8.1,3.623-8.1,8.1c0,1.097,0.221,2.139,0.617,3.091
		c1.213,2.937,4.103,5.01,7.483,5.01h199.8h21.553h1.846c10.42,0,18.899,8.477,18.899,18.899v3.787V286.2z"/>
	<path d="M308.696,272.7c4.472,0,8.101-3.622,8.101-8.1V35.997c0-19.354-15.747-35.1-35.101-35.1H58.498c-4.472,0-8.1,3.623-8.1,8.1
		c0,4.477,3.628,8.1,8.1,8.1h223.198c10.421,0,18.9,8.478,18.9,18.9v228.599C300.597,269.072,304.225,272.7,308.696,272.7z"/>
	<path d="M79.31,155.38h8.467c2.626,0,4.754,2.128,4.754,4.754v54.69c0,2.621,2.125,4.752,4.751,4.752h24.052
		c-0.282-1.149-0.472-2.331-0.472-3.57v-19.454c0-8.3,6.734-15.034,15.04-15.034s15.04,6.734,15.04,15.034v19.454
		c0,1.239-0.189,2.421-0.469,3.57h24.047c2.626,0,4.756-2.131,4.756-4.752v-54.69c0-2.626,2.131-4.754,4.752-4.754h8.464
		c2.626,0,3.375-1.614,1.666-3.612l-55.165-64.528c-1.709-1.994-4.467-1.994-6.173,0l-55.173,64.533
		C75.94,153.766,76.687,155.38,79.31,155.38z"/>
	<path d="M93,273.871c1.294-0.269,2.428-0.77,3.385-1.508c0.846-0.633,1.556-1.419,2.123-2.357c0.891-1.408,1.334-3.001,1.334-4.772
		c0-1.725-0.39-3.186-1.168-4.388c-0.778-1.207-1.933-2.088-3.457-2.647c1.004-0.506,1.767-1.081,2.286-1.703
		c0.923-1.112,1.387-2.578,1.387-4.414c0-1.771-0.458-3.301-1.376-4.571c-1.524-2.073-4.116-3.138-7.765-3.19H75.271v29.958h13.5
		C90.284,274.277,91.697,274.146,93,273.871z M81.243,249.523h6.518c1.432,0,2.613,0.153,3.543,0.47
		c1.073,0.448,1.608,1.366,1.608,2.764c0,1.26-0.406,2.141-1.215,2.631c-0.815,0.496-1.867,0.744-3.164,0.744h-7.285v-6.608H81.243z
		 M81.243,269.078v-7.989h7.377c1.284,0.021,2.283,0.185,2.995,0.506c1.271,0.585,1.906,1.656,1.906,3.217
		c0,1.841-0.656,3.09-1.964,3.744c-0.726,0.348-1.735,0.527-3.035,0.527h-7.28V269.078z"/>
	<path d="M118.476,243.406c-4.282,0-7.554,1.166-9.816,3.497c-3.035,2.742-4.554,6.865-4.554,12.35
		c0,5.379,1.519,9.503,4.554,12.356c2.262,2.336,5.534,3.496,9.816,3.496s7.554-1.171,9.816-3.496
		c3.024-2.854,4.533-6.978,4.533-12.356c0-5.484-1.513-9.607-4.533-12.35C126.03,244.572,122.758,243.406,118.476,243.406z
		 M124.379,267.063c-1.458,1.83-3.425,2.742-5.904,2.742s-4.458-0.912-5.935-2.742c-1.474-1.83-2.212-4.43-2.212-7.805
		s0.738-5.975,2.212-7.8c1.477-1.824,3.457-2.742,5.935-2.742s4.451,0.918,5.904,2.753c1.458,1.835,2.186,4.43,2.186,7.789
		C126.565,262.634,125.837,265.233,124.379,267.063z"/>
	<path d="M150.85,243.406c-4.282,0-7.555,1.166-9.817,3.497c-3.035,2.742-4.553,6.865-4.553,12.35c0,5.379,1.519,9.503,4.553,12.356
		c2.262,2.336,5.535,3.496,9.817,3.496c4.282,0,7.554-1.171,9.816-3.496c3.024-2.854,4.529-6.978,4.529-12.356
		c0-5.484-1.511-9.607-4.529-12.35C158.403,244.572,155.131,243.406,150.85,243.406z M156.756,267.063
		c-1.458,1.83-3.423,2.742-5.901,2.742s-4.461-0.912-5.935-2.742s-2.212-4.43-2.212-7.805s0.738-5.975,2.212-7.8
		c1.474-1.824,3.457-2.742,5.935-2.742s4.451,0.918,5.901,2.753c1.458,1.835,2.188,4.43,2.188,7.789
		C158.938,262.634,158.208,265.233,156.756,267.063z"/>
	<polygon points="187.809,244.319 176.238,256.664 176.238,244.319 170.079,244.319 170.079,274.277 176.238,274.277 
		176.238,264.263 179.244,261.204 188.483,274.277 196.53,274.277 183.605,256.638 195.897,244.319 	"/>
</g>
<g>
</g>
<g>
</g>
<g>
</g>
<g>
</g>
<g>
</g>
<g>
</g>
<g>
</g>
<g>
</g>
<g>
</g>
<g>
</g>
<g>
</g>
<g>
</g>
<g>
</g>
<g>
</g>
<g>
</g>
</svg>
